<?xml version="1.0" encoding="utf-8"?>
<!-- Generator: Adobe Illustrator 28.2.0, SVG Export Plug-In . SVG Version: 6.00 Build 0)  -->
<svg version="1.0" id="Layer_1" xmlns="http://www.w3.org/2000/svg" xmlns:xlink="http://www.w3.org/1999/xlink" x="0px" y="0px"
	 viewBox="0 0 144 144" style="enable-background:new 0 0 144 144;" xml:space="preserve">
<style type="text/css">
	
		.st0{clip-path:url(#SVGID_00000044858597839555142210000017762002160288754055_);fill:url(#SVGID_00000100384807842678493980000014686170542843101887_);}
	.st1{opacity:0.33;fill-rule:evenodd;clip-rule:evenodd;fill:#FFCBBB;}
	.st2{opacity:0.33;fill-rule:evenodd;clip-rule:evenodd;fill:#021B8C;}
	.st3{opacity:0.5;fill:#3B32A1;}
	.st4{fill:#FFFFFF;}
	.st5{opacity:0.25;fill:#7B27CF;}
	.st6{fill:url(#SVGID_00000071550943688135823040000015128702771057490316_);}
	.st7{fill:url(#SVGID_00000067204235368614400370000016306787445914085527_);}
	.st8{fill:url(#SVGID_00000180349885689213657630000006736793779380616614_);}
</style>
<g>
	<g>
		<g>
			<g>
				<g>
					<defs>
						<path id="SVGID_1_" d="M7.5,82.6c3.2-7.1,7.4-14.9,12.6-23.8c17.4-30,30.3-44.5,43.5-43.8c13.1-0.6,26.2,13.8,43.5,43.8
							c13.4,23.1,22.8,43.4,19.2,56.3c-2.8,10.2-13.7,15.4-23.7,13.7c-13.1-2.2-26.3-13.4-38.9-13.4c-12.6,0-25.8,11.2-38.9,13.4
							c-10,1.5-20.9-3.5-23.7-13.7C-1.2,107.2,1.1,96.8,7.5,82.6"/>
					</defs>
					<clipPath id="SVGID_00000003090914343492081710000011152281266476331148_">
						<use xlink:href="#SVGID_1_"  style="overflow:visible;"/>
					</clipPath>
					
						<linearGradient id="SVGID_00000113331679504956038350000015353942459706490752_" gradientUnits="userSpaceOnUse" x1="-22.9124" y1="-289.0811" x2="124.0211" y2="-475.5738" gradientTransform="matrix(1 0 0 1 0 472)">
						<stop  offset="0" style="stop-color:#1F32B3"/>
						<stop  offset="1" style="stop-color:#C735F7"/>
					</linearGradient>
					
						<rect x="-1.2" y="14.2" style="clip-path:url(#SVGID_00000003090914343492081710000011152281266476331148_);fill:url(#SVGID_00000113331679504956038350000015353942459706490752_);" width="131.1" height="116.2"/>
				</g>
			</g>
		</g>
		<path class="st1" d="M53.4,17.4c3.4-1.8,6.8-2.6,10.2-2.5c13.1-0.6,26.2,13.8,43.5,43.8c13.4,23.1,22.8,43.4,19.2,56.3
			c-2.8,10.2-13.7,15.4-23.7,13.7c-6.5-1.1-12.9-4.3-19.2-7.4l0,0C83.2,121.4,141.8,119.1,53.4,17.4"/>
		<path class="st2" d="M73.7,17.4c-3.4-1.8-6.8-2.6-10.2-2.5C50.4,14.3,37.4,28.8,20,58.8C6.6,81.9-2.8,102.2,0.8,115.1
			c2.8,10.2,13.7,15.4,23.7,13.7c6.5-1.1,12.9-4.3,19.2-7.4l0,0C44,121.4-14.8,119.1,73.7,17.4"/>
	</g>
	<g>
		<path class="st3" d="M114.9,32.6c-28.5,24.2-46.2,58.5-55.5,80.3c-2.3,5.4-9.7,5.8-12.8,0.9C38.1,99.5,29.4,90,17.1,79.5
			c-2.6-2.3-2.6-6.2-0.3-8.5l0,0c1.8-1.7,4.5-2.2,6.6-0.9c6.2,3.2,18.8,10.6,28.8,22.2c0,0,13.5-33.5,57.4-66
			c1.7-1.2,3.8-1.1,5.2,0.3l0,0C116.8,28.2,116.6,30.9,114.9,32.6z"/>
		<g>
			<path class="st4" d="M114.9,29.4c-28.5,24.2-46.2,58.5-55.5,80.3c-2.3,5.4-9.7,5.8-12.8,0.9c-8.5-14.3-17.2-23.8-29.5-34.3
				c-2.6-2.3-2.6-6.2-0.3-8.5l0,0c1.8-1.7,4.5-2.2,6.6-0.9c6.2,3.2,18.8,10.6,28.8,22.2c0,0,13.5-33.5,57.4-66
				c1.7-1.2,3.8-1.1,5.2,0.3l0,0C116.8,24.9,116.6,27.7,114.9,29.4z"/>
		</g>
		<path class="st5" d="M114.9,22.9c-0.2-0.2-0.3-0.2-0.3-0.3c-28.2,24-45.8,58.3-55.1,80c-2.3,5.4-9.7,5.8-12.8,0.9
			c-8.5-14.3-17.2-23.8-29.5-34.3c-0.3-0.3-0.6-0.8-0.9-1.1c-1.7,2.5-1.4,5.7,0.9,7.7c12.3,10.5,20.9,19.8,29.5,34.3
			c2.9,4.9,10.5,4.5,12.8-0.9c9.2-21.8,27.1-56.3,55.5-80.3C116.6,27.2,116.8,24.5,114.9,22.9z"/>
	</g>
	<g>
		
			<linearGradient id="SVGID_00000016062976991914041900000001318908978000158392_" gradientUnits="userSpaceOnUse" x1="61.6759" y1="41.0697" x2="123.9851" y2="41.0697" gradientTransform="matrix(1 0 0 -1 0 146)">
			<stop  offset="0" style="stop-color:#FA5C98"/>
			<stop  offset="0.47" style="stop-color:#FFA569"/>
			<stop  offset="1" style="stop-color:#F9D92E"/>
		</linearGradient>
		<path style="fill:url(#SVGID_00000016062976991914041900000001318908978000158392_);" d="M116.3,97.2H68.9
			c-2.8,5.2-5.1,10.3-7.2,14.9c0.8,0.3,1.7,0.5,2.6,0.5h52c4.3,0,7.7-3.4,7.7-7.7l0,0C124,100.6,120.4,97.2,116.3,97.2z"/>
		
			<linearGradient id="SVGID_00000014604444918253626810000015305742621609801612_" gradientUnits="userSpaceOnUse" x1="68.9257" y1="56.4547" x2="144.1727" y2="56.4547" gradientTransform="matrix(1 0 0 -1 0 146)">
			<stop  offset="0" style="stop-color:#0077C0"/>
			<stop  offset="0.45" style="stop-color:#27CBC0"/>
			<stop  offset="1" style="stop-color:#C3FF42"/>
		</linearGradient>
		<path style="fill:url(#SVGID_00000014604444918253626810000015305742621609801612_);" d="M136.5,81.9H77.5
			c-3.2,5.2-6.2,10.5-8.8,15.4h67.5c4.3,0,7.7-3.4,7.7-7.7l0,0C144.1,85.2,140.8,81.9,136.5,81.9z"/>
		
			<linearGradient id="SVGID_00000153698454473744515960000006048681147825276051_" gradientUnits="userSpaceOnUse" x1="77.6116" y1="71.8397" x2="130.8258" y2="71.8397" gradientTransform="matrix(1 0 0 -1 0 146)">
			<stop  offset="0" style="stop-color:#0049E7"/>
			<stop  offset="1" style="stop-color:#2DDAFF"/>
		</linearGradient>
		<path style="fill:url(#SVGID_00000153698454473744515960000006048681147825276051_);" d="M123.2,66.5H88
			c-3.7,5.1-7.2,10.3-10.3,15.4h45.5c4.3,0,7.7-3.4,7.7-7.7l0,0C130.9,69.9,127.4,66.5,123.2,66.5z"/>
	</g>
</g>
</svg>
