<svg width="1200" height="1200" viewBox="0 0 1200 1200" fill="none" xmlns="http://www.w3.org/2000/svg">
<path d="M927.938 660.178C927.938 717.282 927.938 745.839 918.608 768.361C906.17 798.392 882.308 822.25 852.277 834.692C829.755 844.021 801.203 844.021 744.094 844.021H633.958C612.215 844.021 591.362 852.631 575.987 867.951L517.82 925.922C487.594 956.049 436.031 934.639 436.031 891.964C436.031 865.486 414.566 844.021 388.087 844.021H354.047C308.768 844.021 272.062 807.316 272.062 762.037V468.162C272.062 399.521 272.063 365.2 285.421 338.983C297.171 315.921 315.921 297.171 338.983 285.421C365.2 272.063 399.521 272.062 468.163 272.062H575.987" stroke="url(#paint0_linear_622_7201)" stroke-width="55" stroke-linecap="round"/>
<path fill-rule="evenodd" clip-rule="evenodd" d="M814.159 256.162C812.122 250.656 806.871 247 801 247C795.129 247 789.879 250.655 787.841 256.162L777.674 283.638L777.673 283.639C763.897 320.87 758.234 335.309 747.772 345.772L747.771 345.773C737.31 356.232 722.874 361.895 685.65 375.67L685.638 375.675L658.162 385.841C652.656 387.878 649 393.129 649 399C649 404.871 652.656 410.122 658.162 412.159L685.639 422.325L685.65 422.33C722.874 436.105 737.31 441.768 747.771 452.227C758.233 462.69 763.895 477.127 777.67 514.35L777.673 514.358L777.674 514.361L787.841 541.838C789.879 547.345 795.129 551 801 551C806.871 551 812.122 547.344 814.159 541.838L824.331 514.344C838.105 477.127 843.768 462.69 854.227 452.229C864.686 441.767 888.701 432.24 916.585 422.72L943.838 412.159C949.344 410.122 953 404.871 953 399C953 393.129 949.344 387.878 943.838 385.841L916.344 375.668C897.505 368.696 884.504 363.803 874.9 359.313C865.53 354.933 859.395 350.938 854.229 345.773C843.769 335.311 838.106 320.876 824.332 283.657L824.331 283.653L823.32 280.922L814.159 256.162Z" fill="#6F43FF"/>
<path fill-rule="evenodd" clip-rule="evenodd" d="M964.108 185.556C963.317 183.419 961.279 182 959 182C956.721 182 954.683 183.419 953.892 185.556L949.946 196.221L949.946 196.222C944.598 210.673 942.4 216.278 938.339 220.339L938.339 220.339C934.278 224.399 928.675 226.597 914.226 231.944L914.221 231.946L903.556 235.892C901.419 236.683 900 238.721 900 241C900 243.279 901.419 245.317 903.556 246.108L914.222 250.054L914.226 250.056C928.675 255.403 934.278 257.601 938.339 261.661C942.4 265.722 944.598 271.325 949.944 285.774L949.945 285.777L949.946 285.778L953.892 296.444C954.683 298.581 956.721 300 959 300C961.279 300 963.317 298.581 964.108 296.444L968.056 285.772C973.403 271.325 975.601 265.722 979.661 261.661C983.72 257.6 993.042 253.902 1003.87 250.207L1014.44 246.108C1016.58 245.317 1018 243.279 1018 241C1018 238.721 1016.58 236.683 1014.44 235.892L1003.77 231.944C996.459 229.237 991.413 227.338 987.685 225.595C984.048 223.895 981.666 222.344 979.661 220.339C975.601 216.279 973.403 210.675 968.057 196.229L968.056 196.227L967.664 195.167L964.108 185.556Z" fill="#6F43FF"/>
<path fill-rule="evenodd" clip-rule="evenodd" d="M414.25 639.75C414.25 624.976 426.226 613 441 613H679.5C694.274 613 706.25 624.976 706.25 639.75C706.25 654.524 694.274 666.5 679.5 666.5H441C426.226 666.5 414.25 654.524 414.25 639.75Z" fill="#6F43FF"/>
<path fill-rule="evenodd" clip-rule="evenodd" d="M414.25 520.5C414.25 505.726 426.226 493.75 441 493.75H560.25C575.024 493.75 587 505.726 587 520.5C587 535.274 575.024 547.25 560.25 547.25H441C426.226 547.25 414.25 535.274 414.25 520.5Z" fill="#6F43FF"/>
<defs>
<linearGradient id="paint0_linear_622_7201" x1="355.5" y1="2.49999" x2="600" y2="940.005" gradientUnits="userSpaceOnUse">
<stop stop-color="#4D21DE"/>
<stop offset="1" stop-color="#6F43FF"/>
</linearGradient>
</defs>
</svg>
