<svg width="954" height="954" viewBox="0 0 954 954" fill="none" xmlns="http://www.w3.org/2000/svg">
<path d="M804.938 537.178C804.938 594.282 804.938 622.839 795.608 645.361C783.17 675.392 759.308 699.25 729.277 711.692C706.755 721.021 678.203 721.021 621.094 721.021H510.958C489.215 721.021 468.362 729.631 452.987 744.951L394.82 802.922C364.594 833.049 313.031 811.639 313.031 768.964C313.031 742.486 291.566 721.021 265.087 721.021H231.047C185.768 721.021 149.062 684.316 149.062 639.037V345.162C149.062 276.521 149.063 242.2 162.421 215.983C174.171 192.921 192.921 174.171 215.983 162.421C242.2 149.063 276.521 149.062 345.163 149.062H452.987" stroke="url(#paint0_linear_651_77)" stroke-width="55" stroke-linecap="round"/>
<path fill-rule="evenodd" clip-rule="evenodd" d="M691.159 133.162C689.122 127.656 683.871 124 678 124C672.129 124 666.879 127.655 664.841 133.162L654.674 160.638L654.673 160.639C640.897 197.87 635.234 212.309 624.772 222.772L624.771 222.773C614.31 233.232 599.874 238.895 562.65 252.67L562.638 252.675L535.162 262.841C529.656 264.878 526 270.129 526 276C526 281.871 529.656 287.122 535.162 289.159L562.639 299.325L562.65 299.33C599.874 313.105 614.31 318.768 624.771 329.227C635.233 339.69 640.895 354.127 654.67 391.35L654.673 391.358L654.674 391.361L664.841 418.838C666.879 424.345 672.129 428 678 428C683.871 428 689.122 424.344 691.159 418.838L701.331 391.344C715.105 354.127 720.768 339.69 731.227 329.229C741.686 318.767 765.701 309.24 793.585 299.72L820.838 289.159C826.344 287.122 830 281.871 830 276C830 270.129 826.344 264.878 820.838 262.841L793.344 252.668C774.505 245.696 761.504 240.803 751.9 236.313C742.53 231.933 736.395 227.938 731.229 222.773C720.769 212.311 715.106 197.876 701.332 160.657L701.331 160.653L700.32 157.922L691.159 133.162Z" fill="#6F43FF"/>
<path fill-rule="evenodd" clip-rule="evenodd" d="M841.108 62.5563C840.317 60.419 838.279 59 836 59C833.721 59 831.683 60.4188 830.892 62.5561L826.946 73.2214L826.946 73.2219C821.598 87.6732 819.4 93.2777 815.339 97.3391L815.339 97.3393C811.278 101.399 805.675 103.597 791.226 108.944L791.221 108.946L780.556 112.892C778.419 113.683 777 115.721 777 118C777 120.279 778.419 122.317 780.556 123.108L791.222 127.054L791.226 127.056C805.675 132.403 811.278 134.601 815.339 138.661C819.4 142.722 821.598 148.325 826.944 162.774L826.945 162.777L826.946 162.778L830.892 173.444C831.683 175.581 833.721 177 836 177C838.279 177 840.317 175.581 841.108 173.444L845.056 162.772C850.403 148.325 852.601 142.722 856.661 138.661C860.72 134.6 870.042 130.902 880.865 127.207L891.444 123.108C893.581 122.317 895 120.279 895 118C895 115.721 893.581 113.683 891.444 112.892L880.772 108.944C873.459 106.237 868.413 104.338 864.685 102.595C861.048 100.895 858.666 99.3443 856.661 97.3395C852.601 93.2788 850.403 87.6755 845.057 73.2288L845.056 73.2271L844.664 72.1671L841.108 62.5563Z" fill="#6F43FF"/>
<path fill-rule="evenodd" clip-rule="evenodd" d="M291.25 516.75C291.25 501.976 303.226 490 318 490H556.5C571.274 490 583.25 501.976 583.25 516.75C583.25 531.524 571.274 543.5 556.5 543.5H318C303.226 543.5 291.25 531.524 291.25 516.75Z" fill="#6F43FF"/>
<path fill-rule="evenodd" clip-rule="evenodd" d="M291.25 397.5C291.25 382.726 303.226 370.75 318 370.75H437.25C452.024 370.75 464 382.726 464 397.5C464 412.274 452.024 424.25 437.25 424.25H318C303.226 424.25 291.25 412.274 291.25 397.5Z" fill="#6F43FF"/>
<defs>
<linearGradient id="paint0_linear_651_77" x1="232.5" y1="-120.5" x2="477" y2="817.005" gradientUnits="userSpaceOnUse">
<stop stop-color="#4D21DE"/>
<stop offset="1" stop-color="#6F43FF"/>
</linearGradient>
</defs>
</svg>
