<svg width="1200" height="1200" viewBox="0 0 1200 1200" fill="none" xmlns="http://www.w3.org/2000/svg">
<path d="M927.938 660.178C927.938 717.282 927.938 745.839 918.608 768.361C906.17 798.392 882.308 822.25 852.277 834.692C829.755 844.021 801.203 844.021 744.094 844.021H633.958C612.215 844.021 591.362 852.631 575.987 867.951L517.82 925.922C487.594 956.049 436.031 934.639 436.031 891.964C436.031 865.486 414.566 844.021 388.087 844.021H354.047C308.768 844.021 272.062 807.316 272.062 762.037V468.162C272.062 399.521 272.063 365.2 285.421 338.983C297.171 315.921 315.921 297.171 338.983 285.421C365.2 272.063 399.521 272.062 468.163 272.062H575.987" stroke="url(#paint0_linear_622_7201)" stroke-width="55" stroke-linecap="round"/>
<path d="M818.024 510.882C831.539 474.365 837.716 458.079 849.563 446.23C849.563 446.23 849.563 446.23 849.563 446.23C849.563 446.229 849.563 446.229 849.563 446.229C861.412 434.383 877.699 428.205 914.215 414.691C914.215 414.691 914.215 414.691 914.216 414.691L941.632 404.547C944.232 403.585 945.958 401.106 945.958 398.333C945.958 395.561 944.232 393.082 941.632 392.12L914.216 381.976C877.699 368.461 861.412 362.284 849.563 350.438C837.716 338.589 831.539 322.302 818.024 285.784L807.88 258.368C806.918 255.768 804.439 254.042 801.667 254.042L818.024 510.882ZM818.024 510.882L811.811 508.583L818.024 510.882C818.024 510.882 818.024 510.882 818.024 510.882ZM801.667 536L795.453 533.701L798.135 526.454L801.667 536ZM801.667 536L807.88 533.701L805.199 526.454L801.667 536ZM939.333 398.333L929.787 401.865L937.035 404.547L939.333 398.333ZM939.333 398.333L937.035 392.12L929.787 394.801L939.333 398.333ZM801.667 260.667L807.88 262.966L805.199 270.212L801.667 260.667ZM801.667 260.667L795.453 262.966L798.135 270.212L801.667 260.667ZM664 398.333L673.546 394.801L666.299 392.12L664 398.333ZM664 398.333L666.299 404.547L673.546 401.865L664 398.333ZM785.308 510.882L791.522 508.583L785.308 510.882L785.308 510.882ZM691.416 408.477L689.117 414.691L689.117 414.691L691.416 408.477ZM753.77 446.229C753.77 446.23 753.77 446.23 753.77 446.23L758.455 441.545L753.77 446.229ZM689.117 381.976L691.416 388.189L689.117 381.976C689.117 381.976 689.117 381.976 689.117 381.976ZM753.77 350.437L758.455 355.122L753.77 350.437C753.77 350.437 753.77 350.437 753.77 350.437Z" fill="#6F43FF" stroke="#6F43FF" stroke-width="13.25" stroke-linejoin="round"/>
<path d="M965.213 179.701C964.251 177.101 961.772 175.375 959 175.375C956.228 175.375 953.749 177.101 952.787 179.701L948.439 191.451L948.439 191.451C942.527 207.427 940.151 213.441 935.796 217.795L935.795 217.796C931.441 222.151 925.427 224.527 909.452 230.439C909.452 230.439 909.452 230.439 909.452 230.439L897.701 234.787C895.101 235.749 893.375 238.228 893.375 241C893.375 243.772 895.101 246.251 897.701 247.213L909.452 251.561C909.452 251.561 909.452 251.561 909.452 251.561C925.427 257.473 931.441 259.849 935.795 264.204L935.796 264.205C940.151 268.559 942.527 274.573 948.439 290.549L948.439 290.549L952.787 302.299C953.749 304.899 956.228 306.625 959 306.625C961.772 306.625 964.251 304.899 965.213 302.299L969.562 290.549L969.562 290.549C975.474 274.573 977.849 268.559 982.204 264.204L982.205 264.204C986.559 259.849 992.573 257.473 1008.55 251.561C1008.55 251.561 1008.55 251.561 1008.55 251.561L1020.3 247.213C1022.9 246.251 1024.63 243.772 1024.63 241C1024.63 238.228 1022.9 235.749 1020.3 234.787L1008.55 230.439C1008.55 230.439 1008.55 230.439 1008.55 230.439C992.573 224.527 986.559 222.151 982.205 217.796L982.204 217.795C977.849 213.441 975.474 207.427 969.562 191.451L969.562 191.451L965.213 179.701Z" fill="#6F43FF" stroke="#6F43FF" stroke-width="13.25" stroke-linejoin="round"/>
<path d="M679.5 639.75H441" stroke="#6F43FF" stroke-width="53.5" stroke-linecap="round" stroke-linejoin="round"/>
<path d="M560.25 520.5H441" stroke="#6F43FF" stroke-width="53.5" stroke-linecap="round" stroke-linejoin="round"/>
<defs>
<linearGradient id="paint0_linear_622_7201" x1="355.5" y1="2.49999" x2="600" y2="940.005" gradientUnits="userSpaceOnUse">
<stop stop-color="#4D21DE"/>
<stop offset="1" stop-color="#6F43FF"/>
</linearGradient>
</defs>
</svg>
