<svg width="196" height="196" viewBox="0 0 196 196" fill="none" xmlns="http://www.w3.org/2000/svg">
<path d="M62.9511 126.049C57.9026 117.762 55.2079 108.272 55.153 98.5855C55.153 98.0491 55.2959 97.5601 55.3118 97.008C55.7014 85.3113 59.8648 74.0485 67.188 64.8803C74.5112 55.7121 84.6066 49.1239 95.9856 46.087C98.7801 45.3168 101.624 44.737 104.498 44.3518C102.426 44.0501 100.335 43.8919 98.2409 43.8785C93.2135 43.9475 88.2184 44.6904 83.3912 46.087C72.0109 49.1216 61.9141 55.7093 54.5905 64.8779C47.2669 74.0466 43.1045 85.3106 42.7174 97.008C42.7174 97.5444 42.5586 98.0334 42.5586 98.5855C42.6063 108.273 45.3016 117.765 50.3567 126.049C55.7828 135.275 63.8022 142.727 73.431 147.491C83.0598 152.254 93.8793 154.123 104.562 152.867C96.0091 151.902 87.7988 148.977 80.5779 144.324C73.357 139.67 67.3229 133.414 62.9511 126.049Z" fill="url(#paint0_radial_112_182)"/>
<path d="M0.0079423 98.5694C0.0079423 99.3582 0.103254 100.147 0.119137 100.92C0.679335 126.191 11.1277 150.252 29.249 168.001C47.3702 185.75 71.7394 195.792 97.1897 195.997C122.64 196.202 147.17 186.554 165.579 169.1C183.988 151.645 194.828 127.756 195.801 102.497C195.801 101.188 195.992 99.8945 195.992 98.5694C196.157 85.6846 193.745 72.8955 188.894 60.9439C184.044 48.9924 176.852 38.1164 167.736 28.9469C158.62 19.7774 147.762 12.497 135.791 7.52787C123.82 2.5588 110.975 0 98 0C85.0255 0 72.1801 2.5588 60.209 7.52787C48.238 12.497 37.3796 19.7774 28.2638 28.9469C19.148 38.1164 11.9563 48.9924 7.10584 60.9439C2.25538 72.8955 -0.157231 85.6846 0.0079423 98.5694ZM153.075 98.5694C152.906 113.022 147.05 126.836 136.759 137.056C126.469 147.277 112.56 153.093 98.0079 153.261C87.2094 153.265 76.6488 150.109 67.6452 144.188C58.6415 138.267 51.5938 129.843 47.3821 119.968C43.1704 110.092 41.9814 99.2034 43.9637 88.6609C45.9459 78.1183 51.0115 68.3894 58.5278 60.6891C66.0441 52.9888 75.678 47.6583 86.2264 45.3634C96.7749 43.0685 107.77 43.9108 117.84 47.7853C127.909 51.6597 136.606 58.3945 142.844 67.1486C149.082 75.9026 152.586 86.288 152.917 97.0078C152.932 97.5441 153.075 98.0331 153.075 98.5694Z" fill="#9AD3FF"/>
<path d="M0.262369 102.497C0.262369 101.188 0.0717773 99.8944 0.0717773 98.5693C20.9424 98.5693 30.6153 117.105 40.8918 136.823C53.7414 161.463 70.8477 178.311 101.105 178.358C183.079 178.453 195.071 113.682 195.929 100.92C195.304 126.146 184.828 150.143 166.715 167.838C148.602 185.533 124.271 195.541 98.8641 195.746C73.4576 195.951 48.9662 186.337 30.5663 168.936C12.1663 151.535 1.29944 127.71 0.262369 102.497Z" fill="url(#paint1_linear_112_182)"/>
<path d="M58.4116 161.574C58.4116 161.574 68.3387 195.9 98.1198 195.9C145.404 195.9 195.992 158.466 195.992 98.5693C195.992 98.5693 193.515 176.67 101.836 178.358C101.551 178.358 73.8343 177.238 58.4116 161.574Z" fill="url(#paint2_linear_112_182)"/>
<path d="M97.9448 1.23902C72.3619 1.23209 47.7918 11.1674 29.4895 28.9202C11.1872 46.6729 0.60576 70.8336 0.00830078 96.2348C0.865999 83.4887 12.8579 18.6859 94.8316 18.7964C125.01 18.7964 142.196 35.6753 155.045 60.3155C165.338 80.034 174.995 98.5694 195.865 98.5694C195.865 97.2443 195.722 95.9508 195.675 94.6415C194.674 69.5544 183.944 45.8237 165.728 28.4148C147.513 11.006 123.224 1.26822 97.9448 1.23902Z" fill="url(#paint3_linear_112_182)"/>
<path d="M137.589 35.5807C137.589 35.5807 127.662 1.23901 97.881 1.23901C50.6124 1.23901 0.00830078 38.6883 0.00830078 98.5694C0.00830078 98.5694 2.50197 20.4685 94.1643 18.7964C94.4502 18.7806 122.167 19.9163 137.589 35.5807Z" fill="url(#paint4_linear_112_182)"/>
<defs>
<radialGradient id="paint0_radial_112_182" cx="0" cy="0" r="1" gradientUnits="userSpaceOnUse" gradientTransform="translate(43.9592 99.1944) scale(58.6151 58.2194)">
<stop stop-color="#33A6FF"/>
<stop offset="1" stop-color="#0F6DB6"/>
</radialGradient>
<linearGradient id="paint1_linear_112_182" x1="97.8335" y1="109.391" x2="46.7367" y2="224.24" gradientUnits="userSpaceOnUse">
<stop stop-color="#33A6FF"/>
<stop offset="0.14" stop-color="#33A6FF"/>
<stop offset="0.25" stop-color="#33A6FF"/>
<stop offset="0.36" stop-color="#33A6FF"/>
<stop offset="0.46" stop-color="#33A6FF"/>
<stop offset="0.55" stop-color="#33A6FF"/>
<stop offset="0.61" stop-color="#33A6FF"/>
<stop offset="0.68" stop-color="#33A6FF"/>
<stop offset="0.81" stop-color="#33A6FF"/>
<stop offset="0.98" stop-color="#33A6FF"/>
<stop offset="1" stop-color="#33A6FF"/>
</linearGradient>
<linearGradient id="paint2_linear_112_182" x1="195.945" y1="147.235" x2="58.4116" y2="147.235" gradientUnits="userSpaceOnUse">
<stop stop-color="#33A6FF"/>
<stop offset="1" stop-color="#0F6DB6"/>
</linearGradient>
<linearGradient id="paint3_linear_112_182" x1="98.1671" y1="87.7479" x2="149.264" y2="-27.1015" gradientUnits="userSpaceOnUse">
<stop stop-color="#33A6FF"/>
<stop offset="0.14" stop-color="#33A6FF"/>
<stop offset="0.25" stop-color="#33A6FF"/>
<stop offset="0.36" stop-color="#33A6FF"/>
<stop offset="0.46" stop-color="#33A6FF"/>
<stop offset="0.55" stop-color="#33A6FF"/>
<stop offset="0.61" stop-color="#33A6FF"/>
<stop offset="0.68" stop-color="#33A6FF"/>
<stop offset="0.81" stop-color="#33A6FF"/>
<stop offset="0.98" stop-color="#33A6FF"/>
<stop offset="1" stop-color="#33A6FF"/>
</linearGradient>
<linearGradient id="paint4_linear_112_182" x1="0.0718339" y1="49.9042" x2="137.605" y2="49.9042" gradientUnits="userSpaceOnUse">
<stop stop-color="#33A6FF"/>
<stop offset="1" stop-color="#0F6DB6"/>
</linearGradient>
</defs>
</svg>
